<svg width="808" height="507" viewBox="0 0 808 507" fill="none" xmlns="http://www.w3.org/2000/svg">
<rect width="808" height="507" fill="white"/>
<circle cx="404" cy="254" r="228" stroke="black" stroke-width="6"/>
<rect y="183" width="808" height="142" fill="white"/>
<path d="M22.5693 296.774C23.3506 295.114 24.2539 293.332 25.2793 291.428C26.3047 289.475 27.4033 287.497 28.5752 285.495C29.7471 283.444 30.9922 281.418 32.3105 279.416C33.6289 277.414 34.9961 275.534 36.4121 273.776C37.8281 272.067 39.2441 270.847 40.6602 270.114C42.125 269.333 43.4922 268.942 44.7617 268.942C46.0312 268.942 47.1299 269.211 48.0576 269.748C49.0342 270.236 49.8154 270.92 50.4014 271.799C51.0361 272.678 51.5 273.703 51.793 274.875C52.1348 276.047 52.3057 277.316 52.3057 278.684C52.3057 279.807 52.1836 281.32 51.9395 283.225C51.7441 285.08 51.6465 287.033 51.6465 289.084C51.6465 290.256 51.6953 291.428 51.793 292.6C51.9395 293.723 52.1592 294.748 52.4521 295.676C52.7939 296.555 53.2822 297.287 53.917 297.873C54.5518 298.41 55.3818 298.679 56.4072 298.679C57.5791 298.679 58.751 298.361 59.9229 297.727C61.0947 297.043 62.2422 296.164 63.3652 295.09C64.4883 293.967 65.5625 292.746 66.5879 291.428C67.6133 290.061 68.541 288.718 69.3711 287.399C70.2012 286.032 70.9336 284.738 71.5684 283.518C72.2031 282.248 72.7158 281.198 73.1064 280.368C73.5947 279.245 74.4492 278.684 75.6699 278.684C76.5 278.684 77.1592 278.977 77.6475 279.562C78.1357 280.148 78.3799 280.783 78.3799 281.467C78.3799 281.857 78.3066 282.224 78.1602 282.565C77.9648 282.956 77.5742 283.762 76.9883 284.982C76.4512 286.203 75.6943 287.619 74.7178 289.23C73.79 290.842 72.6914 292.526 71.4219 294.284C70.1523 296.042 68.7363 297.678 67.1738 299.191C65.6602 300.656 64 301.877 62.1934 302.854C60.4355 303.781 58.5801 304.245 56.627 304.245C54.3809 304.245 52.5742 303.781 51.207 302.854C49.8398 301.877 48.7656 300.656 47.9844 299.191C47.252 297.727 46.7393 296.091 46.4463 294.284C46.2021 292.478 46.0801 290.72 46.0801 289.011C46.0801 288.132 46.1045 287.204 46.1533 286.228C46.251 285.202 46.3486 284.201 46.4463 283.225C46.5439 282.248 46.6172 281.345 46.666 280.515C46.7637 279.636 46.8125 278.903 46.8125 278.317C46.8125 276.804 46.5928 275.778 46.1533 275.241C45.7627 274.704 45.2988 274.436 44.7617 274.436C43.9805 274.436 43.0771 274.899 42.0518 275.827C41.0752 276.706 40.0254 277.878 38.9023 279.343C37.8281 280.808 36.7295 282.468 35.6064 284.323C34.5322 286.13 33.4824 287.937 32.457 289.743C31.4316 291.55 30.5039 293.283 29.6738 294.943C28.8438 296.555 28.1602 297.897 27.623 298.972C26.5977 301.022 25.5479 302.39 24.4736 303.073C23.4482 303.806 22.5205 304.172 21.6904 304.172C20.1768 304.172 19.0049 303.586 18.1748 302.414C17.3936 301.193 17.0029 299.729 17.0029 298.02V293.405C17.0029 284.177 17.0029 275.388 17.0029 267.038C17.0518 258.64 17.1738 250.852 17.3691 243.674C17.6133 236.447 17.9795 229.929 18.4678 224.118C19.0049 218.259 19.7861 213.278 20.8115 209.177C21.8369 205.026 23.1309 201.828 24.6934 199.582C26.3047 197.336 28.3066 196.213 30.6992 196.213C32.75 196.213 34.4834 196.774 35.8994 197.897C37.3154 199.021 38.4629 200.559 39.3418 202.512C40.2207 204.416 40.8555 206.662 41.2461 209.25C41.6367 211.789 41.832 214.475 41.832 217.307C41.832 223.068 41.2949 228.732 40.2207 234.299C39.1953 239.816 37.8037 245.212 36.0459 250.485C34.2881 255.759 32.2373 260.91 29.8936 265.939C27.5498 270.92 25.084 275.778 22.4961 280.515C22.4961 281.394 22.4961 282.443 22.4961 283.664C22.4961 284.885 22.4961 286.105 22.4961 287.326C22.4961 288.547 22.4961 289.694 22.4961 290.769C22.4961 291.843 22.4961 292.697 22.4961 293.332L22.5693 296.774ZM22.5693 269.748C24.6201 265.256 26.4756 260.886 28.1357 256.638C29.8447 252.341 31.2852 248.068 32.457 243.82C33.6777 239.572 34.6299 235.275 35.3135 230.93C35.9971 226.535 36.3389 221.97 36.3389 217.233C36.3389 216.452 36.29 215.207 36.1924 213.498C36.1436 211.789 35.9238 210.056 35.5332 208.298C35.1914 206.54 34.6299 205.002 33.8486 203.684C33.1162 202.365 32.0664 201.706 30.6992 201.706C29.625 201.706 28.6973 202.438 27.916 203.903C27.1348 205.319 26.4512 207.272 25.8652 209.763C25.2793 212.204 24.791 215.061 24.4004 218.332C24.0098 221.604 23.6924 225.07 23.4482 228.732C23.2041 232.395 23.0088 236.154 22.8623 240.012C22.7646 243.869 22.6914 247.629 22.6426 251.291C22.5938 254.904 22.5693 258.298 22.5693 261.472C22.5693 264.646 22.5693 267.404 22.5693 269.748ZM80.8701 272.897C80.6748 274.216 80.4307 275.461 80.1377 276.633C79.8447 277.756 79.5518 278.757 79.2588 279.636C79.0146 280.466 78.7949 281.149 78.5996 281.687C78.4043 282.224 78.2822 282.517 78.2334 282.565C77.7451 283.688 76.8906 284.25 75.6699 284.25C74.9863 284.25 74.3516 284.006 73.7656 283.518C73.1797 282.98 72.8867 282.321 72.8867 281.54C72.8867 281.247 72.9355 281.027 73.0332 280.881C73.1309 280.734 73.2773 280.441 73.4727 280.002C73.668 279.562 73.9121 278.83 74.2051 277.805C74.498 276.779 74.8643 275.192 75.3037 273.044C74.4736 273.044 73.6191 273.02 72.7402 272.971C71.8613 272.922 71.0557 272.751 70.3232 272.458C69.542 272.165 68.9072 271.701 68.4189 271.066C67.9307 270.432 67.6865 269.553 67.6865 268.43C67.6865 267.6 67.9307 266.477 68.4189 265.061C68.8584 263.645 69.4688 262.253 70.25 260.886C71.0312 259.519 71.9102 258.347 72.8867 257.37C73.8633 256.345 74.8398 255.832 75.8164 255.832C76.9395 255.832 77.8428 256.247 78.5264 257.077C79.2588 257.907 79.8203 258.933 80.2109 260.153C80.6016 261.325 80.8701 262.57 81.0166 263.889C81.2119 265.207 81.3096 266.354 81.3096 267.331C82.1396 267.331 82.9453 267.331 83.7266 267.331C84.5566 267.282 85.3379 267.258 86.0703 267.258C88.8535 267.258 90.9775 267.868 92.4424 269.089C93.9072 270.31 94.6396 272.312 94.6396 275.095C94.6396 276.218 94.5664 277.39 94.4199 278.61C94.2734 279.831 94.1025 281.101 93.9072 282.419C93.7119 283.688 93.541 284.958 93.3945 286.228C93.248 287.497 93.1748 288.742 93.1748 289.963C93.1748 291.721 93.4189 293.186 93.9072 294.357C94.3955 295.48 95.0059 296.384 95.7383 297.067C96.4707 297.751 97.252 298.239 98.082 298.532C98.9121 298.776 99.6689 298.898 100.353 298.898C102.452 298.898 104.43 298.215 106.285 296.848C108.141 295.48 109.85 293.845 111.412 291.94C112.975 289.987 114.366 287.937 115.587 285.788C116.856 283.64 117.906 281.76 118.736 280.148C118.98 279.709 119.322 279.367 119.762 279.123C120.201 278.879 120.665 278.757 121.153 278.757C122.032 278.757 122.716 279.05 123.204 279.636C123.692 280.173 123.937 280.783 123.937 281.467C123.937 281.955 123.839 282.395 123.644 282.785C122.521 284.787 121.202 287.058 119.688 289.597C118.224 292.087 116.539 294.431 114.635 296.628C112.73 298.825 110.582 300.681 108.189 302.194C105.846 303.708 103.258 304.465 100.426 304.465C98.668 304.465 97.0078 304.123 95.4453 303.439C93.8828 302.805 92.5156 301.877 91.3438 300.656C90.2207 299.387 89.3174 297.849 88.6338 296.042C87.9502 294.187 87.6084 292.111 87.6084 289.816C87.6084 287.375 87.8525 284.958 88.3408 282.565C88.8291 280.124 89.0732 277.805 89.0732 275.607C89.0732 274.68 88.8535 273.996 88.4141 273.557C88.0234 273.068 87.1201 272.824 85.7041 272.824C85.0205 272.824 84.2637 272.824 83.4336 272.824C82.6523 272.824 81.7979 272.849 80.8701 272.897ZM75.9629 267.478C75.9629 267.136 75.9385 266.696 75.8896 266.159C75.8896 265.573 75.8408 265.012 75.7432 264.475C75.6943 263.938 75.5967 263.474 75.4502 263.083C75.3525 262.692 75.2305 262.497 75.084 262.497C74.9375 262.497 74.7422 262.692 74.498 263.083C74.3027 263.425 74.083 263.864 73.8389 264.401C73.5947 264.89 73.375 265.427 73.1797 266.013C72.9844 266.599 72.8379 267.087 72.7402 267.478H75.9629ZM130.675 245.505C130.675 247.36 130.016 248.947 128.697 250.266C127.428 251.535 125.865 252.17 124.01 252.17C122.154 252.17 120.567 251.535 119.249 250.266C117.979 248.947 117.345 247.36 117.345 245.505C117.345 244.577 117.516 243.723 117.857 242.941C118.199 242.111 118.663 241.403 119.249 240.817C119.884 240.183 120.592 239.694 121.373 239.353C122.203 239.011 123.082 238.84 124.01 238.84C124.938 238.84 125.792 239.011 126.573 239.353C127.403 239.694 128.111 240.183 128.697 240.817C129.332 241.403 129.82 242.111 130.162 242.941C130.504 243.723 130.675 244.577 130.675 245.505ZM118.81 288.425C118.81 281.394 119.249 274.387 120.128 267.404C120.226 266.721 120.519 266.135 121.007 265.646C121.544 265.109 122.228 264.841 123.058 264.841C123.79 264.841 124.4 265.134 124.889 265.72C125.377 266.257 125.621 266.892 125.621 267.624C125.621 267.917 125.548 268.796 125.401 270.261C125.304 271.726 125.157 273.483 124.962 275.534C124.815 277.536 124.669 279.685 124.522 281.979C124.425 284.226 124.376 286.301 124.376 288.205C124.376 290.793 124.62 292.893 125.108 294.504C125.646 296.066 126.305 297.287 127.086 298.166C127.916 299.045 128.771 299.631 129.649 299.924C130.577 300.217 131.456 300.363 132.286 300.363C133.653 300.363 135.069 299.875 136.534 298.898C137.999 297.922 139.488 296.555 141.002 294.797C142.564 293.039 144.127 290.939 145.689 288.498C147.252 286.008 148.79 283.249 150.304 280.222C150.548 279.733 150.89 279.367 151.329 279.123C151.769 278.83 152.257 278.684 152.794 278.684C153.575 278.684 154.21 278.977 154.698 279.562C155.235 280.148 155.504 280.783 155.504 281.467C155.504 281.955 155.406 282.37 155.211 282.712C154.625 283.835 153.893 285.202 153.014 286.813C152.135 288.425 151.134 290.085 150.011 291.794C148.888 293.503 147.643 295.212 146.275 296.921C144.957 298.581 143.541 300.095 142.027 301.462C140.514 302.78 138.927 303.854 137.267 304.685C135.606 305.515 133.922 305.93 132.213 305.93C130.016 305.93 128.087 305.466 126.427 304.538C124.767 303.61 123.351 302.365 122.179 300.803C121.056 299.24 120.201 297.409 119.615 295.31C119.078 293.161 118.81 290.866 118.81 288.425ZM126.573 245.505C126.573 244.821 126.305 244.235 125.768 243.747C125.279 243.21 124.693 242.941 124.01 242.941C123.326 242.941 122.74 243.21 122.252 243.747C121.764 244.235 121.52 244.821 121.52 245.505C121.52 246.188 121.764 246.774 122.252 247.263C122.74 247.751 123.326 247.995 124.01 247.995C124.693 247.995 125.279 247.751 125.768 247.263C126.305 246.774 126.573 246.188 126.573 245.505ZM158.36 275.9C158.067 276.682 157.701 277.561 157.262 278.537C156.871 279.514 156.407 280.539 155.87 281.613C155.431 282.443 154.967 283.103 154.479 283.591C154.039 284.03 153.453 284.25 152.721 284.25C151.891 284.25 151.231 284.006 150.743 283.518C150.255 282.98 150.011 282.37 150.011 281.687C150.011 281.442 150.035 281.247 150.084 281.101C150.133 280.905 150.255 280.612 150.45 280.222C151.72 277.78 152.647 275.656 153.233 273.85C153.868 271.994 154.381 270.065 154.771 268.063C154.43 266.94 154.186 265.988 154.039 265.207C153.893 264.426 153.819 263.62 153.819 262.79C153.819 261.179 154.161 259.885 154.845 258.908C155.528 257.883 156.48 257.37 157.701 257.37C158.824 257.37 159.703 257.858 160.338 258.835C161.021 259.812 161.363 261.008 161.363 262.424C161.363 263.205 161.29 263.986 161.144 264.768C160.997 265.549 160.802 266.525 160.558 267.697C161.681 270.48 162.804 272.946 163.927 275.095C165.05 277.243 166.051 279.221 166.93 281.027C167.809 282.785 168.517 284.445 169.054 286.008C169.64 287.57 169.933 289.133 169.933 290.695C169.933 292.746 169.518 294.699 168.688 296.555C167.857 298.41 166.49 299.973 164.586 301.242C164.83 301.291 165.074 301.315 165.318 301.315C165.562 301.315 165.807 301.315 166.051 301.315C168.834 301.315 171.397 300.681 173.741 299.411C176.085 298.142 178.185 296.506 180.04 294.504C181.944 292.453 183.629 290.207 185.094 287.766C186.559 285.275 187.828 282.81 188.902 280.368C189.391 279.245 190.074 278.684 190.953 278.684C191.783 278.684 192.418 278.977 192.857 279.562C193.346 280.148 193.59 280.783 193.59 281.467C193.59 281.857 193.517 282.224 193.37 282.565C192.833 283.884 192.125 285.397 191.246 287.106C190.416 288.767 189.391 290.5 188.17 292.307C186.998 294.064 185.631 295.798 184.068 297.507C182.506 299.216 180.748 300.754 178.795 302.121C176.891 303.439 174.791 304.489 172.496 305.271C170.201 306.101 167.687 306.516 164.952 306.516C161.681 306.516 158.629 305.93 155.797 304.758C153.014 303.635 150.743 301.755 148.985 299.118C148.692 298.679 148.546 298.215 148.546 297.727C148.546 296.994 148.814 296.359 149.352 295.822C149.938 295.236 150.597 294.943 151.329 294.943C152.11 294.943 152.77 295.212 153.307 295.749C153.355 295.847 153.526 296.018 153.819 296.262C154.112 296.457 154.454 296.701 154.845 296.994C155.284 297.238 155.772 297.458 156.31 297.653C156.896 297.849 157.481 297.946 158.067 297.946C159.239 297.946 160.216 297.702 160.997 297.214C161.827 296.726 162.486 296.14 162.975 295.456C163.463 294.724 163.805 293.967 164 293.186C164.244 292.355 164.366 291.647 164.366 291.062C164.366 289.841 164.171 288.62 163.78 287.399C163.39 286.179 162.877 284.958 162.242 283.737C161.656 282.517 160.997 281.271 160.265 280.002C159.581 278.684 158.946 277.316 158.36 275.9ZM194.103 296.774C194.884 295.114 195.787 293.332 196.812 291.428C197.838 289.475 198.937 287.497 200.108 285.495C201.28 283.444 202.525 281.418 203.844 279.416C205.162 277.414 206.529 275.534 207.945 273.776C209.361 272.067 210.777 270.847 212.193 270.114C213.658 269.333 215.025 268.942 216.295 268.942C217.564 268.942 218.663 269.211 219.591 269.748C220.567 270.236 221.349 270.92 221.935 271.799C222.569 272.678 223.033 273.703 223.326 274.875C223.668 276.047 223.839 277.316 223.839 278.684C223.839 279.807 223.717 281.32 223.473 283.225C223.277 285.08 223.18 287.033 223.18 289.084C223.18 290.256 223.229 291.428 223.326 292.6C223.473 293.723 223.692 294.748 223.985 295.676C224.327 296.555 224.815 297.287 225.45 297.873C226.085 298.41 226.915 298.679 227.94 298.679C229.112 298.679 230.284 298.361 231.456 297.727C232.628 297.043 233.775 296.164 234.898 295.09C236.021 293.967 237.096 292.746 238.121 291.428C239.146 290.061 240.074 288.718 240.904 287.399C241.734 286.032 242.467 284.738 243.102 283.518C243.736 282.248 244.249 281.198 244.64 280.368C245.128 279.245 245.982 278.684 247.203 278.684C248.033 278.684 248.692 278.977 249.181 279.562C249.669 280.148 249.913 280.783 249.913 281.467C249.913 281.857 249.84 282.224 249.693 282.565C249.498 282.956 249.107 283.762 248.521 284.982C247.984 286.203 247.228 287.619 246.251 289.23C245.323 290.842 244.225 292.526 242.955 294.284C241.686 296.042 240.27 297.678 238.707 299.191C237.193 300.656 235.533 301.877 233.727 302.854C231.969 303.781 230.113 304.245 228.16 304.245C225.914 304.245 224.107 303.781 222.74 302.854C221.373 301.877 220.299 300.656 219.518 299.191C218.785 297.727 218.272 296.091 217.979 294.284C217.735 292.478 217.613 290.72 217.613 289.011C217.613 288.132 217.638 287.204 217.687 286.228C217.784 285.202 217.882 284.201 217.979 283.225C218.077 282.248 218.15 281.345 218.199 280.515C218.297 279.636 218.346 278.903 218.346 278.317C218.346 276.804 218.126 275.778 217.687 275.241C217.296 274.704 216.832 274.436 216.295 274.436C215.514 274.436 214.61 274.899 213.585 275.827C212.608 276.706 211.559 277.878 210.436 279.343C209.361 280.808 208.263 282.468 207.14 284.323C206.065 286.13 205.016 287.937 203.99 289.743C202.965 291.55 202.037 293.283 201.207 294.943C200.377 296.555 199.693 297.897 199.156 298.972C198.131 301.022 197.081 302.39 196.007 303.073C194.981 303.806 194.054 304.172 193.224 304.172C191.71 304.172 190.538 303.586 189.708 302.414C188.927 301.193 188.536 299.729 188.536 298.02V293.405C188.536 284.177 188.536 275.388 188.536 267.038C188.585 258.64 188.707 250.852 188.902 243.674C189.146 236.447 189.513 229.929 190.001 224.118C190.538 218.259 191.319 213.278 192.345 209.177C193.37 205.026 194.664 201.828 196.227 199.582C197.838 197.336 199.84 196.213 202.232 196.213C204.283 196.213 206.017 196.774 207.433 197.897C208.849 199.021 209.996 200.559 210.875 202.512C211.754 204.416 212.389 206.662 212.779 209.25C213.17 211.789 213.365 214.475 213.365 217.307C213.365 223.068 212.828 228.732 211.754 234.299C210.729 239.816 209.337 245.212 207.579 250.485C205.821 255.759 203.771 260.91 201.427 265.939C199.083 270.92 196.617 275.778 194.029 280.515C194.029 281.394 194.029 282.443 194.029 283.664C194.029 284.885 194.029 286.105 194.029 287.326C194.029 288.547 194.029 289.694 194.029 290.769C194.029 291.843 194.029 292.697 194.029 293.332L194.103 296.774ZM194.103 269.748C196.153 265.256 198.009 260.886 199.669 256.638C201.378 252.341 202.818 248.068 203.99 243.82C205.211 239.572 206.163 235.275 206.847 230.93C207.53 226.535 207.872 221.97 207.872 217.233C207.872 216.452 207.823 215.207 207.726 213.498C207.677 211.789 207.457 210.056 207.066 208.298C206.725 206.54 206.163 205.002 205.382 203.684C204.649 202.365 203.6 201.706 202.232 201.706C201.158 201.706 200.23 202.438 199.449 203.903C198.668 205.319 197.984 207.272 197.398 209.763C196.812 212.204 196.324 215.061 195.934 218.332C195.543 221.604 195.226 225.07 194.981 228.732C194.737 232.395 194.542 236.154 194.396 240.012C194.298 243.869 194.225 247.629 194.176 251.291C194.127 254.904 194.103 258.298 194.103 261.472C194.103 264.646 194.103 267.404 194.103 269.748ZM256.651 245.505C256.651 247.36 255.992 248.947 254.674 250.266C253.404 251.535 251.842 252.17 249.986 252.17C248.131 252.17 246.544 251.535 245.226 250.266C243.956 248.947 243.321 247.36 243.321 245.505C243.321 244.577 243.492 243.723 243.834 242.941C244.176 242.111 244.64 241.403 245.226 240.817C245.86 240.183 246.568 239.694 247.35 239.353C248.18 239.011 249.059 238.84 249.986 238.84C250.914 238.84 251.769 239.011 252.55 239.353C253.38 239.694 254.088 240.183 254.674 240.817C255.309 241.403 255.797 242.111 256.139 242.941C256.48 243.723 256.651 244.577 256.651 245.505ZM244.786 288.425C244.786 281.394 245.226 274.387 246.104 267.404C246.202 266.721 246.495 266.135 246.983 265.646C247.521 265.109 248.204 264.841 249.034 264.841C249.767 264.841 250.377 265.134 250.865 265.72C251.354 266.257 251.598 266.892 251.598 267.624C251.598 267.917 251.524 268.796 251.378 270.261C251.28 271.726 251.134 273.483 250.938 275.534C250.792 277.536 250.646 279.685 250.499 281.979C250.401 284.226 250.353 286.301 250.353 288.205C250.353 290.793 250.597 292.893 251.085 294.504C251.622 296.066 252.281 297.287 253.062 298.166C253.893 299.045 254.747 299.631 255.626 299.924C256.554 300.217 257.433 300.363 258.263 300.363C259.63 300.363 261.046 299.875 262.511 298.898C263.976 297.922 265.465 296.555 266.979 294.797C268.541 293.039 270.104 290.939 271.666 288.498C273.229 286.008 274.767 283.249 276.28 280.222C276.524 279.733 276.866 279.367 277.306 279.123C277.745 278.83 278.233 278.684 278.771 278.684C279.552 278.684 280.187 278.977 280.675 279.562C281.212 280.148 281.48 280.783 281.48 281.467C281.48 281.955 281.383 282.37 281.188 282.712C280.602 283.835 279.869 285.202 278.99 286.813C278.111 288.425 277.11 290.085 275.987 291.794C274.864 293.503 273.619 295.212 272.252 296.921C270.934 298.581 269.518 300.095 268.004 301.462C266.49 302.78 264.903 303.854 263.243 304.685C261.583 305.515 259.898 305.93 258.189 305.93C255.992 305.93 254.063 305.466 252.403 304.538C250.743 303.61 249.327 302.365 248.155 300.803C247.032 299.24 246.178 297.409 245.592 295.31C245.055 293.161 244.786 290.866 244.786 288.425ZM252.55 245.505C252.55 244.821 252.281 244.235 251.744 243.747C251.256 243.21 250.67 242.941 249.986 242.941C249.303 242.941 248.717 243.21 248.229 243.747C247.74 244.235 247.496 244.821 247.496 245.505C247.496 246.188 247.74 246.774 248.229 247.263C248.717 247.751 249.303 247.995 249.986 247.995C250.67 247.995 251.256 247.751 251.744 247.263C252.281 246.774 252.55 246.188 252.55 245.505ZM294.664 293.991C295.494 295.847 296.861 297.336 298.766 298.459C300.67 299.533 302.818 300.07 305.211 300.07C305.943 300.07 307.14 299.973 308.8 299.777C310.46 299.533 312.364 298.801 314.513 297.58C316.71 296.311 319.029 294.333 321.471 291.647C323.912 288.962 326.28 285.178 328.575 280.295C328.819 279.758 329.161 279.367 329.601 279.123C330.04 278.83 330.528 278.684 331.065 278.684C331.896 278.684 332.555 278.977 333.043 279.562C333.58 280.148 333.849 280.783 333.849 281.467C333.849 281.76 333.751 282.15 333.556 282.639C331.847 286.203 329.942 289.401 327.843 292.233C325.743 295.017 323.473 297.409 321.031 299.411C318.59 301.364 316.026 302.854 313.341 303.879C310.704 304.953 307.994 305.49 305.211 305.49C303.014 305.49 300.938 305.148 298.985 304.465C297.081 303.781 295.421 302.878 294.005 301.755C292.638 300.583 291.539 299.289 290.709 297.873C289.928 296.408 289.537 294.919 289.537 293.405C289.537 293.21 289.562 292.941 289.61 292.6C289.659 292.258 289.781 291.892 289.977 291.501C290.221 291.062 290.538 290.671 290.929 290.329C291.368 289.938 291.954 289.621 292.687 289.377C294.688 288.791 296.52 288.083 298.18 287.253C299.889 286.374 301.354 285.397 302.574 284.323C303.795 283.249 304.747 282.077 305.431 280.808C306.114 279.489 306.456 278.073 306.456 276.56C306.456 275.241 306.017 274.167 305.138 273.337C304.259 272.507 303.185 272.092 301.915 272.092C300.597 272.092 299.303 272.556 298.033 273.483C296.764 274.362 295.519 275.559 294.298 277.072C293.126 278.537 292.003 280.246 290.929 282.199C289.854 284.104 288.854 286.105 287.926 288.205C287.047 290.305 286.266 292.404 285.582 294.504C284.898 296.555 284.337 298.459 283.897 300.217C283.751 300.754 283.58 301.34 283.385 301.975C283.238 302.609 282.994 303.195 282.652 303.732C282.311 304.318 281.896 304.782 281.407 305.124C280.919 305.515 280.284 305.71 279.503 305.71C278.771 305.71 278.062 305.393 277.379 304.758C276.695 304.172 276.354 303.146 276.354 301.682C276.354 301.389 276.354 300.266 276.354 298.312C276.402 296.359 276.451 293.82 276.5 290.695C276.549 287.521 276.598 283.908 276.646 279.855C276.744 275.754 276.817 271.433 276.866 266.892C276.915 262.302 276.988 257.59 277.086 252.756C277.184 247.922 277.257 243.21 277.306 238.62C277.354 234.03 277.403 229.685 277.452 225.583C277.55 221.433 277.623 217.771 277.672 214.597C277.721 211.374 277.745 208.762 277.745 206.76C277.794 204.709 277.818 203.488 277.818 203.098C277.818 202.316 278.111 201.682 278.697 201.193C279.283 200.656 279.918 200.388 280.602 200.388C281.383 200.388 282.042 200.656 282.579 201.193C283.116 201.682 283.385 202.341 283.385 203.171C283.385 203.269 283.36 204.245 283.312 206.101C283.312 207.907 283.287 210.349 283.238 213.425C283.189 216.501 283.116 220.09 283.019 224.191C282.97 228.293 282.896 232.663 282.799 237.302C282.75 241.892 282.677 246.628 282.579 251.511C282.53 256.394 282.457 261.154 282.359 265.793C282.311 270.432 282.262 274.851 282.213 279.05C282.164 283.249 282.115 286.96 282.066 290.183C282.848 287.692 283.849 285.08 285.069 282.346C286.29 279.562 287.73 276.999 289.391 274.655C291.051 272.312 292.906 270.383 294.957 268.869C297.057 267.355 299.376 266.599 301.915 266.599C303.331 266.599 304.649 266.867 305.87 267.404C307.091 267.893 308.141 268.601 309.02 269.528C309.947 270.407 310.655 271.457 311.144 272.678C311.681 273.898 311.949 275.217 311.949 276.633C311.949 278.83 311.461 280.856 310.484 282.712C309.508 284.519 308.214 286.154 306.603 287.619C304.991 289.035 303.136 290.28 301.036 291.354C298.985 292.429 296.861 293.308 294.664 293.991ZM337.438 294.943C338.463 296.359 339.781 297.507 341.393 298.386C343.004 299.216 344.981 299.631 347.325 299.631C349.718 299.631 351.891 299.069 353.844 297.946C355.797 296.774 357.579 295.261 359.19 293.405C360.802 291.55 362.242 289.475 363.512 287.18C364.781 284.885 365.929 282.59 366.954 280.295C367.198 279.758 367.54 279.367 367.979 279.123C368.419 278.83 368.907 278.684 369.444 278.684C370.274 278.684 370.934 278.977 371.422 279.562C371.959 280.148 372.228 280.783 372.228 281.467C372.228 281.711 372.203 281.931 372.154 282.126C372.105 282.272 372.032 282.443 371.935 282.639C368.565 290.061 364.879 295.651 360.875 299.411C356.92 303.171 352.428 305.1 347.398 305.197C344.176 305.197 341.393 304.562 339.049 303.293C336.705 302.072 334.776 300.485 333.263 298.532C331.749 296.53 330.626 294.284 329.894 291.794C329.161 289.304 328.795 286.813 328.795 284.323C328.795 281.833 329.088 279.538 329.674 277.438C330.309 275.339 331.188 273.508 332.311 271.945C333.482 270.383 334.85 269.162 336.412 268.283C338.023 267.404 339.781 266.965 341.686 266.965C342.809 266.965 343.907 267.209 344.981 267.697C346.104 268.137 347.105 268.796 347.984 269.675C348.863 270.505 349.571 271.53 350.108 272.751C350.646 273.972 350.914 275.363 350.914 276.926C350.914 278.928 350.572 280.808 349.889 282.565C349.205 284.323 348.253 285.959 347.032 287.473C345.86 288.986 344.444 290.378 342.784 291.647C341.124 292.917 339.342 294.016 337.438 294.943ZM335.24 290.183C336.754 289.548 338.121 288.742 339.342 287.766C340.611 286.789 341.686 285.715 342.564 284.543C343.443 283.371 344.127 282.15 344.615 280.881C345.104 279.562 345.348 278.244 345.348 276.926C345.348 275.461 344.981 274.362 344.249 273.63C343.517 272.849 342.662 272.458 341.686 272.458C340.367 272.458 339.244 272.824 338.316 273.557C337.389 274.289 336.632 275.241 336.046 276.413C335.46 277.585 335.021 278.903 334.728 280.368C334.483 281.784 334.361 283.2 334.361 284.616C334.361 285.495 334.435 286.423 334.581 287.399C334.776 288.376 334.996 289.304 335.24 290.183ZM375.157 275.9C374.864 276.682 374.498 277.561 374.059 278.537C373.668 279.514 373.204 280.539 372.667 281.613C372.228 282.443 371.764 283.103 371.275 283.591C370.836 284.03 370.25 284.25 369.518 284.25C368.688 284.25 368.028 284.006 367.54 283.518C367.052 282.98 366.808 282.37 366.808 281.687C366.808 281.442 366.832 281.247 366.881 281.101C366.93 280.905 367.052 280.612 367.247 280.222C368.517 277.78 369.444 275.656 370.03 273.85C370.665 271.994 371.178 270.065 371.568 268.063C371.227 266.94 370.982 265.988 370.836 265.207C370.689 264.426 370.616 263.62 370.616 262.79C370.616 261.179 370.958 259.885 371.642 258.908C372.325 257.883 373.277 257.37 374.498 257.37C375.621 257.37 376.5 257.858 377.135 258.835C377.818 259.812 378.16 261.008 378.16 262.424C378.16 263.205 378.087 263.986 377.94 264.768C377.794 265.549 377.599 266.525 377.354 267.697C378.478 270.48 379.601 272.946 380.724 275.095C381.847 277.243 382.848 279.221 383.727 281.027C384.605 282.785 385.313 284.445 385.851 286.008C386.437 287.57 386.729 289.133 386.729 290.695C386.729 292.746 386.314 294.699 385.484 296.555C384.654 298.41 383.287 299.973 381.383 301.242C381.627 301.291 381.871 301.315 382.115 301.315C382.359 301.315 382.604 301.315 382.848 301.315C385.631 301.315 388.194 300.681 390.538 299.411C392.882 298.142 394.981 296.506 396.837 294.504C398.741 292.453 400.426 290.207 401.891 287.766C403.355 285.275 404.625 282.81 405.699 280.368C406.188 279.245 406.871 278.684 407.75 278.684C408.58 278.684 409.215 278.977 409.654 279.562C410.143 280.148 410.387 280.783 410.387 281.467C410.387 281.857 410.313 282.224 410.167 282.565C409.63 283.884 408.922 285.397 408.043 287.106C407.213 288.767 406.188 290.5 404.967 292.307C403.795 294.064 402.428 295.798 400.865 297.507C399.303 299.216 397.545 300.754 395.592 302.121C393.688 303.439 391.588 304.489 389.293 305.271C386.998 306.101 384.483 306.516 381.749 306.516C378.478 306.516 375.426 305.93 372.594 304.758C369.811 303.635 367.54 301.755 365.782 299.118C365.489 298.679 365.343 298.215 365.343 297.727C365.343 296.994 365.611 296.359 366.148 295.822C366.734 295.236 367.394 294.943 368.126 294.943C368.907 294.943 369.566 295.212 370.104 295.749C370.152 295.847 370.323 296.018 370.616 296.262C370.909 296.457 371.251 296.701 371.642 296.994C372.081 297.238 372.569 297.458 373.106 297.653C373.692 297.849 374.278 297.946 374.864 297.946C376.036 297.946 377.013 297.702 377.794 297.214C378.624 296.726 379.283 296.14 379.771 295.456C380.26 294.724 380.602 293.967 380.797 293.186C381.041 292.355 381.163 291.647 381.163 291.062C381.163 289.841 380.968 288.62 380.577 287.399C380.187 286.179 379.674 284.958 379.039 283.737C378.453 282.517 377.794 281.271 377.062 280.002C376.378 278.684 375.743 277.316 375.157 275.9ZM410.899 296.774C411.681 295.114 412.584 293.332 413.609 291.428C414.635 289.475 415.733 287.497 416.905 285.495C418.077 283.444 419.322 281.418 420.641 279.416C421.959 277.414 423.326 275.534 424.742 273.776C426.158 272.067 427.574 270.847 428.99 270.114C430.455 269.333 431.822 268.942 433.092 268.942C434.361 268.942 435.46 269.211 436.388 269.748C437.364 270.236 438.146 270.92 438.731 271.799C439.366 272.678 439.83 273.703 440.123 274.875C440.465 276.047 440.636 277.316 440.636 278.684C440.636 279.807 440.514 281.32 440.27 283.225C440.074 285.08 439.977 287.033 439.977 289.084C439.977 290.256 440.025 291.428 440.123 292.6C440.27 293.723 440.489 294.748 440.782 295.676C441.124 296.555 441.612 297.287 442.247 297.873C442.882 298.41 443.712 298.679 444.737 298.679C445.909 298.679 447.081 298.361 448.253 297.727C449.425 297.043 450.572 296.164 451.695 295.09C452.818 293.967 453.893 292.746 454.918 291.428C455.943 290.061 456.871 288.718 457.701 287.399C458.531 286.032 459.264 284.738 459.898 283.518C460.533 282.248 461.046 281.198 461.437 280.368C461.925 279.245 462.779 278.684 464 278.684C464.83 278.684 465.489 278.977 465.978 279.562C466.466 280.148 466.71 280.783 466.71 281.467C466.71 281.857 466.637 282.224 466.49 282.565C466.295 282.956 465.904 283.762 465.318 284.982C464.781 286.203 464.024 287.619 463.048 289.23C462.12 290.842 461.021 292.526 459.752 294.284C458.482 296.042 457.066 297.678 455.504 299.191C453.99 300.656 452.33 301.877 450.523 302.854C448.766 303.781 446.91 304.245 444.957 304.245C442.711 304.245 440.904 303.781 439.537 302.854C438.17 301.877 437.096 300.656 436.314 299.191C435.582 297.727 435.069 296.091 434.776 294.284C434.532 292.478 434.41 290.72 434.41 289.011C434.41 288.132 434.435 287.204 434.483 286.228C434.581 285.202 434.679 284.201 434.776 283.225C434.874 282.248 434.947 281.345 434.996 280.515C435.094 279.636 435.143 278.903 435.143 278.317C435.143 276.804 434.923 275.778 434.483 275.241C434.093 274.704 433.629 274.436 433.092 274.436C432.311 274.436 431.407 274.899 430.382 275.827C429.405 276.706 428.355 277.878 427.232 279.343C426.158 280.808 425.06 282.468 423.937 284.323C422.862 286.13 421.812 287.937 420.787 289.743C419.762 291.55 418.834 293.283 418.004 294.943C417.174 296.555 416.49 297.897 415.953 298.972C414.928 301.022 413.878 302.39 412.804 303.073C411.778 303.806 410.851 304.172 410.021 304.172C408.507 304.172 407.335 303.586 406.505 302.414C405.724 301.193 405.333 299.729 405.333 298.02V293.405C405.333 284.177 405.333 275.388 405.333 267.038C405.382 258.64 405.504 250.852 405.699 243.674C405.943 236.447 406.31 229.929 406.798 224.118C407.335 218.259 408.116 213.278 409.142 209.177C410.167 205.026 411.461 201.828 413.023 199.582C414.635 197.336 416.637 196.213 419.029 196.213C421.08 196.213 422.813 196.774 424.229 197.897C425.646 199.021 426.793 200.559 427.672 202.512C428.551 204.416 429.186 206.662 429.576 209.25C429.967 211.789 430.162 214.475 430.162 217.307C430.162 223.068 429.625 228.732 428.551 234.299C427.525 239.816 426.134 245.212 424.376 250.485C422.618 255.759 420.567 260.91 418.224 265.939C415.88 270.92 413.414 275.778 410.826 280.515C410.826 281.394 410.826 282.443 410.826 283.664C410.826 284.885 410.826 286.105 410.826 287.326C410.826 288.547 410.826 289.694 410.826 290.769C410.826 291.843 410.826 292.697 410.826 293.332L410.899 296.774ZM410.899 269.748C412.95 265.256 414.806 260.886 416.466 256.638C418.175 252.341 419.615 248.068 420.787 243.82C422.008 239.572 422.96 235.275 423.644 230.93C424.327 226.535 424.669 221.97 424.669 217.233C424.669 216.452 424.62 215.207 424.522 213.498C424.474 211.789 424.254 210.056 423.863 208.298C423.521 206.54 422.96 205.002 422.179 203.684C421.446 202.365 420.396 201.706 419.029 201.706C417.955 201.706 417.027 202.438 416.246 203.903C415.465 205.319 414.781 207.272 414.195 209.763C413.609 212.204 413.121 215.061 412.73 218.332C412.34 221.604 412.022 225.07 411.778 228.732C411.534 232.395 411.339 236.154 411.192 240.012C411.095 243.869 411.021 247.629 410.973 251.291C410.924 254.904 410.899 258.298 410.899 261.472C410.899 264.646 410.899 267.404 410.899 269.748ZM532.042 282.565C532.042 287.058 531.236 290.891 529.625 294.064C528.014 297.238 526.036 299.655 523.692 301.315H523.985C526.866 301.315 529.479 300.681 531.822 299.411C534.215 298.093 536.363 296.433 538.268 294.431C540.172 292.38 541.881 290.109 543.395 287.619C544.908 285.129 546.251 282.712 547.423 280.368C547.667 279.831 548.009 279.416 548.448 279.123C548.937 278.83 549.449 278.684 549.986 278.684C550.816 278.684 551.476 278.977 551.964 279.562C552.452 280.148 552.696 280.783 552.696 281.467C552.696 281.857 552.623 282.224 552.477 282.565C551.207 285.397 549.693 288.254 547.936 291.135C546.178 293.967 544.127 296.53 541.783 298.825C539.439 301.12 536.803 302.976 533.873 304.392C530.943 305.856 527.696 306.589 524.132 306.589C521.544 306.589 519.029 306.174 516.588 305.344C514.146 304.562 511.998 303.317 510.143 301.608C509.459 301.071 508.873 300.51 508.385 299.924C507.896 299.289 507.506 298.703 507.213 298.166C507.115 298.068 507.066 297.971 507.066 297.873C506.773 297.434 506.627 296.97 506.627 296.481C506.627 295.847 506.847 295.261 507.286 294.724C507.335 294.626 507.384 294.577 507.433 294.577C507.481 294.528 507.53 294.479 507.579 294.431C508.067 293.991 508.604 293.747 509.19 293.698H509.41C509.654 293.698 509.825 293.723 509.923 293.771C509.972 293.771 509.996 293.796 509.996 293.845C510.045 293.845 510.094 293.845 510.143 293.845C510.289 293.845 510.46 293.894 510.655 293.991C510.704 294.04 510.753 294.064 510.802 294.064C511.241 294.357 511.607 294.724 511.9 295.163C512.242 295.749 512.633 296.286 513.072 296.774C513.463 297.165 513.927 297.531 514.464 297.873C515.001 298.166 515.611 298.312 516.295 298.312C517.516 298.312 518.736 297.946 519.957 297.214C521.178 296.481 522.276 295.432 523.253 294.064C524.229 292.697 525.011 291.037 525.597 289.084C526.231 287.131 526.549 284.958 526.549 282.565C526.549 280.808 526.354 279.318 525.963 278.098C525.621 276.828 525.157 275.803 524.571 275.021C524.034 274.24 523.448 273.679 522.813 273.337C522.179 272.946 521.568 272.751 520.982 272.751C519.664 272.751 518.321 273.435 516.954 274.802C515.636 276.169 514.317 277.902 512.999 280.002C511.681 282.102 510.362 284.421 509.044 286.96C507.774 289.499 506.48 291.965 505.162 294.357C505.064 302.268 504.918 309.812 504.723 316.989C504.576 324.167 504.283 330.832 503.844 336.984C503.453 343.137 502.892 348.703 502.159 353.684C501.427 358.664 500.426 362.912 499.156 366.428C497.887 369.992 496.324 372.727 494.469 374.631C492.613 376.535 490.343 377.487 487.657 377.487C486.827 377.487 485.875 377.316 484.801 376.975C483.727 376.633 482.726 375.925 481.798 374.851C480.87 373.825 480.089 372.336 479.454 370.383C478.819 368.43 478.502 365.817 478.502 362.546C478.502 358.396 479.015 353.586 480.04 348.117C481.065 342.648 482.53 336.838 484.435 330.686C486.29 324.582 488.512 318.308 491.1 311.862C493.688 305.417 496.544 299.143 499.669 293.039C499.669 291.33 499.669 289.646 499.669 287.985C499.718 286.325 499.742 284.714 499.742 283.151C499.107 283.884 498.351 284.25 497.472 284.25C496.642 284.25 495.982 283.957 495.494 283.371C495.006 282.785 494.762 282.15 494.762 281.467C494.762 281.125 494.835 280.759 494.981 280.368C496.153 277.683 497.057 275.144 497.691 272.751C498.326 270.31 498.79 268.186 499.083 266.379C499.425 264.523 499.62 263.059 499.669 261.984C499.718 260.91 499.742 260.349 499.742 260.3C499.742 259.567 500.011 258.933 500.548 258.396C501.085 257.858 501.744 257.59 502.525 257.59C503.258 257.59 503.893 257.858 504.43 258.396C504.967 258.884 505.235 259.519 505.235 260.3V282.785C506.358 280.881 507.481 279.001 508.604 277.146C509.728 275.29 510.899 273.63 512.12 272.165C513.39 270.7 514.732 269.528 516.148 268.649C517.613 267.722 519.225 267.258 520.982 267.258C522.643 267.258 524.156 267.648 525.523 268.43C526.891 269.211 528.062 270.285 529.039 271.652C530.016 273.02 530.748 274.655 531.236 276.56C531.773 278.415 532.042 280.417 532.042 282.565ZM499.522 306.076C497.13 311.447 494.957 316.843 493.004 322.263C491.1 327.683 489.488 332.907 488.17 337.937C486.803 342.966 485.753 347.678 485.021 352.072C484.288 356.467 483.922 360.324 483.922 363.645C483.922 364.475 483.971 365.378 484.068 366.354C484.166 367.331 484.361 368.234 484.654 369.064C484.947 369.895 485.362 370.578 485.899 371.115C486.437 371.701 487.145 371.994 488.023 371.994C489.635 371.994 491.026 370.969 492.198 368.918C493.37 366.916 494.347 364.182 495.128 360.715C495.958 357.297 496.642 353.342 497.179 348.85C497.716 344.406 498.131 339.743 498.424 334.86C498.766 329.978 499.01 325.046 499.156 320.065C499.303 315.134 499.425 310.471 499.522 306.076ZM604.112 282.565C603.917 282.956 603.502 283.786 602.867 285.056C602.281 286.276 601.5 287.692 600.523 289.304C599.596 290.915 598.497 292.6 597.228 294.357C595.958 296.115 594.542 297.727 592.979 299.191C591.417 300.656 589.732 301.877 587.926 302.854C586.119 303.781 584.215 304.245 582.213 304.245C579.381 304.245 576.988 303.342 575.035 301.535C573.131 299.729 571.739 297.458 570.86 294.724C569.2 297.507 567.223 299.729 564.928 301.389C562.633 303 560.338 303.806 558.043 303.806C556.236 303.806 554.601 303.488 553.136 302.854C551.671 302.17 550.426 301.242 549.4 300.07C548.375 298.85 547.569 297.434 546.983 295.822C546.446 294.211 546.178 292.453 546.178 290.549C546.178 286.74 546.812 283.396 548.082 280.515C549.4 277.585 551.061 275.144 553.062 273.19C555.064 271.237 557.262 269.772 559.654 268.796C562.096 267.819 564.439 267.331 566.686 267.331C568.199 267.331 569.591 267.551 570.86 267.99C572.13 268.381 573.204 268.82 574.083 269.309C575.011 269.797 575.719 270.261 576.207 270.7C576.695 271.091 576.964 271.311 577.013 271.359C577.55 271.994 577.818 272.653 577.818 273.337C577.818 274.069 577.55 274.729 577.013 275.314C576.476 275.852 575.841 276.12 575.108 276.12C574.327 276.12 573.668 275.852 573.131 275.314C573.033 275.217 572.813 275.046 572.472 274.802C572.13 274.509 571.666 274.216 571.08 273.923C570.494 273.63 569.786 273.386 568.956 273.19C568.175 272.946 567.271 272.824 566.246 272.824C564.732 272.824 563.121 273.166 561.412 273.85C559.703 274.533 558.141 275.607 556.725 277.072C555.309 278.488 554.112 280.295 553.136 282.492C552.208 284.641 551.744 287.204 551.744 290.183C551.744 291.11 551.842 292.062 552.037 293.039C552.232 293.967 552.574 294.821 553.062 295.603C553.551 296.384 554.21 297.019 555.04 297.507C555.87 297.995 556.896 298.239 558.116 298.239C558.995 298.239 559.996 297.946 561.119 297.36C562.291 296.774 563.39 295.871 564.415 294.65C565.489 293.43 566.441 291.892 567.271 290.036C568.15 288.181 568.761 285.983 569.103 283.444C569.2 282.761 569.518 282.199 570.055 281.76C570.592 281.271 571.227 281.027 571.959 281.027C572.643 281.027 573.229 281.296 573.717 281.833C574.254 282.37 574.547 282.98 574.596 283.664C574.645 284.592 574.742 285.91 574.889 287.619C575.035 289.279 575.353 290.939 575.841 292.6C576.378 294.26 577.159 295.7 578.185 296.921C579.21 298.142 580.626 298.752 582.433 298.752C583.604 298.752 584.752 298.435 585.875 297.8C587.047 297.165 588.17 296.335 589.244 295.31C590.367 294.235 591.417 293.039 592.394 291.721C593.419 290.354 594.347 288.986 595.177 287.619C596.007 286.252 596.739 284.934 597.374 283.664C598.009 282.395 598.546 281.296 598.985 280.368C599.229 279.831 599.571 279.416 600.011 279.123C600.499 278.83 601.012 278.684 601.549 278.684C602.379 278.684 603.038 279.001 603.526 279.636C604.063 280.222 604.332 280.856 604.332 281.54C604.332 281.882 604.259 282.224 604.112 282.565ZM658.385 229.685C658.385 230.466 658.116 231.101 657.579 231.589C657.042 232.028 656.383 232.248 655.602 232.248H618.468V233.054C618.468 236.032 618.248 239.206 617.809 242.575C617.369 245.944 616.759 249.313 615.978 252.683C615.245 256.003 614.391 259.25 613.414 262.424C612.486 265.598 611.51 268.527 610.484 271.213C609.508 273.898 608.531 276.242 607.555 278.244C606.578 280.197 605.699 281.662 604.918 282.639C605.553 284.885 606.31 286.984 607.188 288.938C608.067 290.842 609.044 292.526 610.118 293.991C611.241 295.407 612.438 296.53 613.707 297.36C614.977 298.19 616.344 298.605 617.809 298.605C619.518 298.605 621.202 297.897 622.862 296.481C624.571 295.017 626.134 293.308 627.55 291.354C629.015 289.353 630.284 287.351 631.358 285.349C632.481 283.298 633.287 281.662 633.775 280.441C634.264 279.27 635.118 278.684 636.339 278.684C637.169 278.684 637.828 278.977 638.316 279.562C638.854 280.148 639.122 280.783 639.122 281.467C639.122 281.809 639.049 282.15 638.902 282.492C638.756 282.834 638.39 283.615 637.804 284.836C637.267 286.057 636.534 287.473 635.606 289.084C634.728 290.695 633.678 292.404 632.457 294.211C631.285 295.969 629.942 297.58 628.429 299.045C626.964 300.51 625.377 301.73 623.668 302.707C621.959 303.684 620.152 304.172 618.248 304.172C614.879 304.172 611.852 303.073 609.166 300.876C606.48 298.679 604.186 295.603 602.281 291.647C600.426 287.692 599.01 283.005 598.033 277.585C597.057 272.165 596.568 266.232 596.568 259.787C596.568 258.176 596.593 256.296 596.642 254.147C596.69 251.95 596.788 249.655 596.935 247.263C597.081 244.821 597.301 242.331 597.594 239.792C597.887 237.204 598.277 234.689 598.766 232.248H572.472C571.69 232.248 571.031 232.028 570.494 231.589C569.957 231.101 569.688 230.466 569.688 229.685C569.688 228.903 569.957 228.293 570.494 227.854C571.031 227.365 571.69 227.121 572.472 227.121H600.011C600.499 225.363 601.061 223.752 601.695 222.287C602.379 220.822 603.136 219.553 603.966 218.479C604.845 217.404 605.797 216.574 606.822 215.988C607.896 215.354 609.068 215.036 610.338 215.036C611.559 215.036 612.608 215.354 613.487 215.988C614.415 216.574 615.196 217.404 615.831 218.479C616.466 219.553 616.954 220.822 617.296 222.287C617.687 223.752 617.979 225.363 618.175 227.121H655.602C656.383 227.121 657.042 227.365 657.579 227.854C658.116 228.293 658.385 228.903 658.385 229.685ZM603.233 275.314C604.698 272.092 606.017 268.625 607.188 264.914C608.409 261.154 609.435 257.37 610.265 253.562C611.144 249.753 611.803 246.018 612.242 242.355C612.73 238.693 612.975 235.324 612.975 232.248H604.332C603.648 235.275 603.087 239.035 602.647 243.527C602.257 247.971 602.062 253.391 602.062 259.787C602.062 263.352 602.159 266.354 602.354 268.796C602.55 271.188 602.843 273.361 603.233 275.314ZM610.045 220.529C609.605 220.529 608.971 221.018 608.141 221.994C607.311 222.922 606.48 224.631 605.65 227.121H612.682C612.438 225.07 612.071 223.459 611.583 222.287C611.144 221.115 610.631 220.529 610.045 220.529ZM604.405 280.588V280.661V280.588ZM639.854 296.774C640.636 295.114 641.539 293.332 642.564 291.428C643.59 289.475 644.688 287.497 645.86 285.495C647.032 283.444 648.277 281.418 649.596 279.416C650.914 277.414 652.281 275.534 653.697 273.776C655.113 272.067 656.529 270.847 657.945 270.114C659.41 269.333 660.777 268.942 662.047 268.942C663.316 268.942 664.415 269.211 665.343 269.748C666.319 270.236 667.101 270.92 667.687 271.799C668.321 272.678 668.785 273.703 669.078 274.875C669.42 276.047 669.591 277.316 669.591 278.684C669.591 279.807 669.469 281.32 669.225 283.225C669.029 285.08 668.932 287.033 668.932 289.084C668.932 290.256 668.98 291.428 669.078 292.6C669.225 293.723 669.444 294.748 669.737 295.676C670.079 296.555 670.567 297.287 671.202 297.873C671.837 298.41 672.667 298.679 673.692 298.679C674.864 298.679 676.036 298.361 677.208 297.727C678.38 297.043 679.527 296.164 680.65 295.09C681.773 293.967 682.848 292.746 683.873 291.428C684.898 290.061 685.826 288.718 686.656 287.399C687.486 286.032 688.219 284.738 688.854 283.518C689.488 282.248 690.001 281.198 690.392 280.368C690.88 279.245 691.734 278.684 692.955 278.684C693.785 278.684 694.444 278.977 694.933 279.562C695.421 280.148 695.665 280.783 695.665 281.467C695.665 281.857 695.592 282.224 695.445 282.565C695.25 282.956 694.859 283.762 694.273 284.982C693.736 286.203 692.979 287.619 692.003 289.23C691.075 290.842 689.977 292.526 688.707 294.284C687.438 296.042 686.021 297.678 684.459 299.191C682.945 300.656 681.285 301.877 679.479 302.854C677.721 303.781 675.865 304.245 673.912 304.245C671.666 304.245 669.859 303.781 668.492 302.854C667.125 301.877 666.051 300.656 665.27 299.191C664.537 297.727 664.024 296.091 663.731 294.284C663.487 292.478 663.365 290.72 663.365 289.011C663.365 288.132 663.39 287.204 663.438 286.228C663.536 285.202 663.634 284.201 663.731 283.225C663.829 282.248 663.902 281.345 663.951 280.515C664.049 279.636 664.098 278.903 664.098 278.317C664.098 276.804 663.878 275.778 663.438 275.241C663.048 274.704 662.584 274.436 662.047 274.436C661.266 274.436 660.362 274.899 659.337 275.827C658.36 276.706 657.311 277.878 656.188 279.343C655.113 280.808 654.015 282.468 652.892 284.323C651.817 286.13 650.768 287.937 649.742 289.743C648.717 291.55 647.789 293.283 646.959 294.943C646.129 296.555 645.445 297.897 644.908 298.972C643.883 301.022 642.833 302.39 641.759 303.073C640.733 303.806 639.806 304.172 638.976 304.172C637.462 304.172 636.29 303.586 635.46 302.414C634.679 301.193 634.288 299.729 634.288 298.02V293.405C634.288 284.177 634.288 275.388 634.288 267.038C634.337 258.64 634.459 250.852 634.654 243.674C634.898 236.447 635.265 229.929 635.753 224.118C636.29 218.259 637.071 213.278 638.097 209.177C639.122 205.026 640.416 201.828 641.979 199.582C643.59 197.336 645.592 196.213 647.984 196.213C650.035 196.213 651.769 196.774 653.185 197.897C654.601 199.021 655.748 200.559 656.627 202.512C657.506 204.416 658.141 206.662 658.531 209.25C658.922 211.789 659.117 214.475 659.117 217.307C659.117 223.068 658.58 228.732 657.506 234.299C656.48 239.816 655.089 245.212 653.331 250.485C651.573 255.759 649.522 260.91 647.179 265.939C644.835 270.92 642.369 275.778 639.781 280.515C639.781 281.394 639.781 282.443 639.781 283.664C639.781 284.885 639.781 286.105 639.781 287.326C639.781 288.547 639.781 289.694 639.781 290.769C639.781 291.843 639.781 292.697 639.781 293.332L639.854 296.774ZM639.854 269.748C641.905 265.256 643.761 260.886 645.421 256.638C647.13 252.341 648.57 248.068 649.742 243.82C650.963 239.572 651.915 235.275 652.599 230.93C653.282 226.535 653.624 221.97 653.624 217.233C653.624 216.452 653.575 215.207 653.478 213.498C653.429 211.789 653.209 210.056 652.818 208.298C652.477 206.54 651.915 205.002 651.134 203.684C650.401 202.365 649.352 201.706 647.984 201.706C646.91 201.706 645.982 202.438 645.201 203.903C644.42 205.319 643.736 207.272 643.15 209.763C642.564 212.204 642.076 215.061 641.686 218.332C641.295 221.604 640.978 225.07 640.733 228.732C640.489 232.395 640.294 236.154 640.147 240.012C640.05 243.869 639.977 247.629 639.928 251.291C639.879 254.904 639.854 258.298 639.854 261.472C639.854 264.646 639.854 267.404 639.854 269.748ZM747.081 282.565C746.886 282.956 746.471 283.786 745.836 285.056C745.25 286.276 744.469 287.692 743.492 289.304C742.564 290.915 741.466 292.6 740.196 294.357C738.927 296.115 737.511 297.727 735.948 299.191C734.386 300.656 732.701 301.877 730.895 302.854C729.088 303.781 727.184 304.245 725.182 304.245C722.35 304.245 719.957 303.342 718.004 301.535C716.1 299.729 714.708 297.458 713.829 294.724C712.169 297.507 710.191 299.729 707.896 301.389C705.602 303 703.307 303.806 701.012 303.806C699.205 303.806 697.569 303.488 696.104 302.854C694.64 302.17 693.395 301.242 692.369 300.07C691.344 298.85 690.538 297.434 689.952 295.822C689.415 294.211 689.146 292.453 689.146 290.549C689.146 286.74 689.781 283.396 691.051 280.515C692.369 277.585 694.029 275.144 696.031 273.19C698.033 271.237 700.23 269.772 702.623 268.796C705.064 267.819 707.408 267.331 709.654 267.331C711.168 267.331 712.56 267.551 713.829 267.99C715.099 268.381 716.173 268.82 717.052 269.309C717.979 269.797 718.688 270.261 719.176 270.7C719.664 271.091 719.933 271.311 719.981 271.359C720.519 271.994 720.787 272.653 720.787 273.337C720.787 274.069 720.519 274.729 719.981 275.314C719.444 275.852 718.81 276.12 718.077 276.12C717.296 276.12 716.637 275.852 716.1 275.314C716.002 275.217 715.782 275.046 715.44 274.802C715.099 274.509 714.635 274.216 714.049 273.923C713.463 273.63 712.755 273.386 711.925 273.19C711.144 272.946 710.24 272.824 709.215 272.824C707.701 272.824 706.09 273.166 704.381 273.85C702.672 274.533 701.109 275.607 699.693 277.072C698.277 278.488 697.081 280.295 696.104 282.492C695.177 284.641 694.713 287.204 694.713 290.183C694.713 291.11 694.811 292.062 695.006 293.039C695.201 293.967 695.543 294.821 696.031 295.603C696.52 296.384 697.179 297.019 698.009 297.507C698.839 297.995 699.864 298.239 701.085 298.239C701.964 298.239 702.965 297.946 704.088 297.36C705.26 296.774 706.358 295.871 707.384 294.65C708.458 293.43 709.41 291.892 710.24 290.036C711.119 288.181 711.729 285.983 712.071 283.444C712.169 282.761 712.486 282.199 713.023 281.76C713.561 281.271 714.195 281.027 714.928 281.027C715.611 281.027 716.197 281.296 716.686 281.833C717.223 282.37 717.516 282.98 717.564 283.664C717.613 284.592 717.711 285.91 717.857 287.619C718.004 289.279 718.321 290.939 718.81 292.6C719.347 294.26 720.128 295.7 721.153 296.921C722.179 298.142 723.595 298.752 725.401 298.752C726.573 298.752 727.721 298.435 728.844 297.8C730.016 297.165 731.139 296.335 732.213 295.31C733.336 294.235 734.386 293.039 735.362 291.721C736.388 290.354 737.315 288.986 738.146 287.619C738.976 286.252 739.708 284.934 740.343 283.664C740.978 282.395 741.515 281.296 741.954 280.368C742.198 279.831 742.54 279.416 742.979 279.123C743.468 278.83 743.98 278.684 744.518 278.684C745.348 278.684 746.007 279.001 746.495 279.636C747.032 280.222 747.301 280.856 747.301 281.54C747.301 281.882 747.228 282.224 747.081 282.565ZM760.484 293.991C761.314 295.847 762.682 297.336 764.586 298.459C766.49 299.533 768.639 300.07 771.031 300.07C771.764 300.07 772.96 299.973 774.62 299.777C776.28 299.533 778.185 298.801 780.333 297.58C782.53 296.311 784.85 294.333 787.291 291.647C789.732 288.962 792.101 285.178 794.396 280.295C794.64 279.758 794.981 279.367 795.421 279.123C795.86 278.83 796.349 278.684 796.886 278.684C797.716 278.684 798.375 278.977 798.863 279.562C799.4 280.148 799.669 280.783 799.669 281.467C799.669 281.76 799.571 282.15 799.376 282.639C797.667 286.203 795.763 289.401 793.663 292.233C791.563 295.017 789.293 297.409 786.852 299.411C784.41 301.364 781.847 302.854 779.161 303.879C776.524 304.953 773.814 305.49 771.031 305.49C768.834 305.49 766.759 305.148 764.806 304.465C762.901 303.781 761.241 302.878 759.825 301.755C758.458 300.583 757.359 299.289 756.529 297.873C755.748 296.408 755.357 294.919 755.357 293.405C755.357 293.21 755.382 292.941 755.431 292.6C755.479 292.258 755.602 291.892 755.797 291.501C756.041 291.062 756.358 290.671 756.749 290.329C757.188 289.938 757.774 289.621 758.507 289.377C760.509 288.791 762.34 288.083 764 287.253C765.709 286.374 767.174 285.397 768.395 284.323C769.615 283.249 770.567 282.077 771.251 280.808C771.935 279.489 772.276 278.073 772.276 276.56C772.276 275.241 771.837 274.167 770.958 273.337C770.079 272.507 769.005 272.092 767.735 272.092C766.417 272.092 765.123 272.556 763.854 273.483C762.584 274.362 761.339 275.559 760.118 277.072C758.946 278.537 757.823 280.246 756.749 282.199C755.675 284.104 754.674 286.105 753.746 288.205C752.867 290.305 752.086 292.404 751.402 294.504C750.719 296.555 750.157 298.459 749.718 300.217C749.571 300.754 749.4 301.34 749.205 301.975C749.059 302.609 748.814 303.195 748.473 303.732C748.131 304.318 747.716 304.782 747.228 305.124C746.739 305.515 746.104 305.71 745.323 305.71C744.591 305.71 743.883 305.393 743.199 304.758C742.516 304.172 742.174 303.146 742.174 301.682C742.174 301.389 742.174 300.266 742.174 298.312C742.223 296.359 742.271 293.82 742.32 290.695C742.369 287.521 742.418 283.908 742.467 279.855C742.564 275.754 742.638 271.433 742.687 266.892C742.735 262.302 742.809 257.59 742.906 252.756C743.004 247.922 743.077 243.21 743.126 238.62C743.175 234.03 743.224 229.685 743.272 225.583C743.37 221.433 743.443 217.771 743.492 214.597C743.541 211.374 743.565 208.762 743.565 206.76C743.614 204.709 743.639 203.488 743.639 203.098C743.639 202.316 743.932 201.682 744.518 201.193C745.104 200.656 745.738 200.388 746.422 200.388C747.203 200.388 747.862 200.656 748.399 201.193C748.937 201.682 749.205 202.341 749.205 203.171C749.205 203.269 749.181 204.245 749.132 206.101C749.132 207.907 749.107 210.349 749.059 213.425C749.01 216.501 748.937 220.09 748.839 224.191C748.79 228.293 748.717 232.663 748.619 237.302C748.57 241.892 748.497 246.628 748.399 251.511C748.351 256.394 748.277 261.154 748.18 265.793C748.131 270.432 748.082 274.851 748.033 279.05C747.984 283.249 747.936 286.96 747.887 290.183C748.668 287.692 749.669 285.08 750.89 282.346C752.11 279.562 753.551 276.999 755.211 274.655C756.871 272.312 758.727 270.383 760.777 268.869C762.877 267.355 765.196 266.599 767.735 266.599C769.151 266.599 770.47 266.867 771.69 267.404C772.911 267.893 773.961 268.601 774.84 269.528C775.768 270.407 776.476 271.457 776.964 272.678C777.501 273.898 777.77 275.217 777.77 276.633C777.77 278.83 777.281 280.856 776.305 282.712C775.328 284.519 774.034 286.154 772.423 287.619C770.812 289.035 768.956 290.28 766.856 291.354C764.806 292.429 762.682 293.308 760.484 293.991Z" fill="black"/>
</svg>
